<svg xmlns="http://www.w3.org/2000/svg" xmlns:xlink="http://www.w3.org/1999/xlink" xmlns:xodm="http://www.corel.com/coreldraw/odm/2003" xml:space="preserve" width="54mm" height="34mm" version="1.0" style="shape-rendering:geometricPrecision; text-rendering:geometricPrecision; image-rendering:optimizeQuality; fill-rule:evenodd; clip-rule:evenodd" viewBox="0 0 5400 3400"> <defs> <style type="text/css"> .fil0 {fill:none} .fil1 {fill:#FEFEFE} .fil4 {fill:#186788} .fil6 {fill:#F08422} .fil3 {fill:#F58634} .fil2 {fill:#186788;fill-rule:nonzero} .fil5 {fill:#F08422;fill-rule:nonzero} </style> </defs> <g id="Layer_x0020_1"> <metadata id="CorelCorpID_0Corel-Layer"></metadata> <g id="_1829614470000"> <rect class="fil0" x="-0" y="0" width="5400" height="3400"></rect> <rect class="fil1" x="647.07" y="982.32" width="4105.83" height="1514.74" rx="1286.47" ry="1200"></rect> <g> <path class="fil2" d="M1147.55 3273.62l0 3.97 -80.49 0 0 -3.97 5.09 0c4.47,0 8.09,-0.81 10.81,-2.41 1.98,-1.09 3.5,-2.91 4.55,-5.52 0.82,-1.83 1.24,-6.65 1.24,-14.46l0 -101.96c0,-7.97 -0.42,-12.95 -1.24,-14.93 -0.86,-1.99 -2.53,-3.74 -5.06,-5.21 -2.52,-1.52 -5.94,-2.26 -10.3,-2.26l-5.09 0 0 -3.96 80.49 0 0 3.96 -5.1 0c-4.43,0 -8.01,0.82 -10.73,2.41 -1.94,1.09 -3.5,2.92 -4.63,5.52 -0.81,1.83 -1.24,6.65 -1.24,14.47l0 101.96c0,7.97 0.43,12.94 1.28,14.93 0.9,1.98 2.57,3.73 5.1,5.21 2.52,1.51 5.95,2.25 10.22,2.25l5.1 0zm57.2 -102.65l0 13.76c5.45,-5.87 10.69,-10.11 15.71,-12.79 5.02,-2.68 10.38,-4.01 16.14,-4.01 6.92,0 12.64,1.91 17.19,5.76 4.55,3.85 7.58,8.63 9.09,14.31 1.21,4.35 1.83,12.68 1.83,24.96l0 41.53c0,8.21 0.74,13.3 2.22,15.32 1.48,2.03 4.55,3.27 9.21,3.81l0 3.97 -53.89 0 0 -3.97c4.04,-0.54 6.92,-2.21 8.67,-5.01 1.21,-1.91 1.83,-6.61 1.83,-14.12l0 -47.44c0,-8.75 -0.35,-14.27 -1.01,-16.52 -0.7,-2.3 -1.83,-4.05 -3.46,-5.33 -1.64,-1.25 -3.42,-1.87 -5.41,-1.87 -6.49,0 -12.52,4.59 -18.12,13.77l0 57.39c0,7.97 0.74,13.03 2.22,15.13 1.48,2.14 4.24,3.46 8.28,4l0 3.97 -53.89 0 0 -3.97c4.47,-0.46 7.62,-1.9 9.52,-4.31 1.29,-1.67 1.91,-6.61 1.91,-14.82l0 -60.42c0,-8.13 -0.74,-13.23 -2.22,-15.21 -1.48,-2.02 -4.55,-3.3 -9.21,-3.93l0 -3.96 43.39 0zm153.33 -2.8l1.63 36.39 -3.97 0c-4.59,-10.77 -9.33,-18.12 -14.27,-22.08 -4.9,-3.93 -9.8,-5.91 -14.7,-5.91 -3.07,0 -5.71,1.05 -7.89,3.11 -2.18,2.1 -3.27,4.51 -3.27,7.23 0,2.02 0.74,4.01 2.26,5.91 2.41,3.11 9.18,8.4 20.26,15.94 11.12,7.55 18.39,13.96 21.93,19.21 3.5,5.25 5.25,11.16 5.25,17.66 0,5.91 -1.48,11.7 -4.43,17.38 -2.92,5.68 -7.08,10.03 -12.45,13.06 -5.36,3.04 -11.27,4.55 -17.77,4.55 -5.05,0 -11.82,-1.59 -20.26,-4.82 -2.29,-0.82 -3.81,-1.24 -4.66,-1.24 -2.49,0 -4.55,1.94 -6.22,5.83l-3.97 0 -1.87 -38.26 3.97 0c3.38,9.95 8.05,17.42 14,22.39 5.91,4.98 11.51,7.47 16.8,7.47 3.65,0 6.61,-1.13 8.9,-3.34 2.29,-2.26 3.46,-4.94 3.46,-8.13 0,-3.66 -1.13,-6.77 -3.38,-9.45 -2.3,-2.64 -7.35,-6.65 -15.21,-12.02 -11.58,-8.04 -19.05,-14.15 -22.47,-18.39 -4.98,-6.22 -7.47,-13.06 -7.47,-20.57 0,-8.2 2.8,-15.59 8.44,-22.2 5.64,-6.65 13.8,-9.96 24.46,-9.96 5.75,0 11.31,1.44 16.68,4.32 2.02,1.17 3.69,1.75 4.98,1.75 1.36,0 2.49,-0.31 3.3,-0.89 0.82,-0.59 2.14,-2.22 3.97,-4.94l3.97 0zm64.9 98.45l0 39.9c0,5.52 0.43,9.29 1.32,11.28 0.86,1.98 2.22,3.46 4.04,4.35 1.83,0.94 5.41,1.4 10.74,1.4l0 3.97 -61.13 0 0 -3.97c4.82,-0.15 8.4,-1.48 10.73,-4.04 1.56,-1.75 2.33,-6.34 2.33,-13.69l0 -112.69c0,-7.62 -0.89,-12.44 -2.68,-14.58 -1.79,-2.1 -5.25,-3.31 -10.38,-3.62l0 -3.96 45.03 0 0 14c3.73,-5.45 7.5,-9.41 11.39,-11.83 5.52,-3.46 11.55,-5.21 18.08,-5.21 7.82,0 14.94,2.45 21.35,7.39 6.42,4.94 11.28,11.75 14.62,20.42 3.35,8.67 5.02,18 5.02,28.03 0,10.77 -1.71,20.61 -5.17,29.52 -3.46,8.9 -8.48,15.67 -15.05,20.33 -6.53,4.67 -13.85,7 -21.89,7 -5.84,0 -11.32,-1.28 -16.41,-3.89 -3.78,-1.94 -7.78,-5.32 -11.94,-10.11zm0 -11.51c6.53,9.22 13.53,13.85 21,13.85 4.12,0 7.5,-2.14 10.15,-6.46 3.96,-6.37 5.94,-18.47 5.94,-36.32 0,-18.31 -2.17,-30.83 -6.49,-37.56 -2.92,-4.47 -6.77,-6.69 -11.66,-6.69 -7.66,0 -14,5.52 -18.94,16.57l0 56.61zm113.97 -135.7c4.94,0 9.1,1.71 12.52,5.17 3.42,3.46 5.13,7.62 5.13,12.48 0,4.9 -1.71,9.02 -5.17,12.44 -3.46,3.42 -7.62,5.14 -12.48,5.14 -4.9,0 -9.02,-1.72 -12.44,-5.14 -3.42,-3.42 -5.13,-7.54 -5.13,-12.44 0,-4.86 1.71,-9.02 5.13,-12.48 3.42,-3.46 7.54,-5.17 12.44,-5.17zm16.02 51.56l0 84.46c0,7.58 0.9,12.44 2.65,14.58 1.78,2.1 5.25,3.3 10.42,3.61l0 3.97 -58.1 0 0 -3.97c4.82,-0.15 8.4,-1.51 10.74,-4.16 1.55,-1.75 2.33,-6.45 2.33,-14.03l0 -62.3c0,-7.62 -0.9,-12.44 -2.68,-14.58 -1.79,-2.1 -5.25,-3.31 -10.39,-3.62l0 -3.96 45.03 0zm67.39 0l0.08 24.26c7,-11 13.18,-18.31 18.47,-21.89 5.28,-3.62 10.38,-5.41 15.28,-5.41 4.24,0 7.66,1.33 10.19,3.93 2.52,2.61 3.81,6.3 3.81,11.08 0,5.06 -1.25,9.03 -3.7,11.82 -2.45,2.8 -5.4,4.2 -8.9,4.2 -4.01,0 -7.47,-1.28 -10.38,-3.85 -2.96,-2.6 -4.71,-4.04 -5.21,-4.31 -0.78,-0.47 -1.64,-0.7 -2.61,-0.7 -2.18,0 -4.28,0.82 -6.22,2.49 -3.11,2.6 -5.45,6.3 -7.04,11.08 -2.41,7.35 -3.62,15.48 -3.62,24.38l0.08 24.46 0 6.42c0,4.35 0.27,7.15 0.82,8.39 0.89,2.07 2.25,3.58 4.04,4.52 1.83,0.97 4.86,1.55 9.14,1.78l0 3.97 -57.86 0 0 -3.97c4.67,-0.39 7.82,-1.67 9.45,-3.81 1.63,-2.17 2.45,-7.89 2.45,-17.18l0 -59.03c0,-6.18 -0.31,-10.11 -0.94,-11.82 -0.73,-2.18 -1.86,-3.74 -3.3,-4.75 -1.44,-1.01 -4.01,-1.71 -7.66,-2.1l0 -3.96 43.63 0zm145.54 49.46l-58.56 0c0.7,14.11 4.47,25.27 11.32,33.48 5.25,6.3 11.55,9.45 18.94,9.45 4.58,0 8.71,-1.29 12.44,-3.81 3.73,-2.53 7.74,-7.12 11.98,-13.69l3.88 2.57c-5.75,11.7 -12.17,20.02 -19.13,24.88 -7,4.86 -15.09,7.31 -24.3,7.31 -15.79,0 -27.76,-6.06 -35.89,-18.2 -6.53,-9.76 -9.8,-21.89 -9.8,-36.39 0,-17.73 4.82,-31.85 14.43,-42.35 9.6,-10.5 20.88,-15.75 33.79,-15.75 10.77,0 20.14,4.4 28.07,13.23 7.93,8.82 12.21,21.93 12.83,39.27zm-27.99 -7.47c0,-12.21 -0.66,-20.61 -1.99,-25.16 -1.36,-4.55 -3.42,-8.01 -6.22,-10.34 -1.59,-1.36 -3.73,-2.06 -6.41,-2.06 -3.93,0 -7.16,1.94 -9.69,5.79 -4.47,6.77 -6.72,16.02 -6.72,27.81l0 3.96 31.03 0zm108.45 -44.79l1.63 36.39 -3.97 0c-4.59,-10.77 -9.33,-18.12 -14.27,-22.08 -4.9,-3.93 -9.8,-5.91 -14.7,-5.91 -3.07,0 -5.71,1.05 -7.89,3.11 -2.18,2.1 -3.27,4.51 -3.27,7.23 0,2.02 0.74,4.01 2.26,5.91 2.41,3.11 9.18,8.4 20.26,15.94 11.12,7.55 18.39,13.96 21.93,19.21 3.5,5.25 5.25,11.16 5.25,17.66 0,5.91 -1.48,11.7 -4.43,17.38 -2.92,5.68 -7.08,10.03 -12.45,13.06 -5.36,3.04 -11.27,4.55 -17.77,4.55 -5.05,0 -11.82,-1.59 -20.26,-4.82 -2.29,-0.82 -3.81,-1.24 -4.66,-1.24 -2.49,0 -4.55,1.94 -6.22,5.83l-3.97 0 -1.87 -38.26 3.97 0c3.38,9.95 8.05,17.42 14,22.39 5.91,4.98 11.51,7.47 16.8,7.47 3.65,0 6.61,-1.13 8.9,-3.34 2.29,-2.26 3.46,-4.94 3.46,-8.13 0,-3.66 -1.13,-6.77 -3.38,-9.45 -2.3,-2.64 -7.35,-6.65 -15.21,-12.02 -11.58,-8.04 -19.05,-14.15 -22.47,-18.39 -4.98,-6.22 -7.47,-13.06 -7.47,-20.57 0,-8.2 2.8,-15.59 8.44,-22.2 5.64,-6.65 13.8,-9.96 24.46,-9.96 5.75,0 11.31,1.44 16.68,4.32 2.02,1.17 3.69,1.75 4.98,1.75 1.36,0 2.49,-0.31 3.3,-0.89 0.82,-0.59 2.14,-2.22 3.97,-4.94l3.97 0zm183.66 -48.76l1.16 51.56 -4.66 0c-2.22,-12.91 -7.63,-23.29 -16.26,-31.15 -8.67,-7.85 -18,-11.78 -28.03,-11.78 -7.78,0 -13.92,2.06 -18.44,6.22 -4.54,4.12 -6.8,8.9 -6.8,14.27 0,3.42 0.82,6.46 2.41,9.14 2.18,3.54 5.72,7.08 10.62,10.58 3.57,2.48 11.82,6.96 24.73,13.33 18.12,8.87 30.33,17.27 36.63,25.16 6.26,7.9 9.37,16.92 9.37,27.1 0,12.91 -5.06,24 -15.13,33.29 -10.07,9.29 -22.86,13.96 -38.38,13.96 -4.86,0 -9.49,-0.51 -13.8,-1.48 -4.36,-0.97 -9.8,-2.84 -16.33,-5.6 -3.66,-1.51 -6.65,-2.25 -9.02,-2.25 -1.99,0 -4.05,0.77 -6.27,2.29 -2.21,1.56 -4,3.89 -5.36,7.04l-3.97 0 0 -58.33 3.97 0c3.34,16.37 9.8,28.89 19.32,37.49 9.57,8.59 19.84,12.91 30.88,12.91 8.51,0 15.32,-2.34 20.37,-6.96 5.06,-4.63 7.59,-10 7.59,-16.18 0,-3.62 -0.97,-7.15 -2.92,-10.58 -1.94,-3.42 -4.86,-6.65 -8.83,-9.76 -3.96,-3.07 -10.96,-7.07 -20.99,-12.01 -14.08,-6.88 -24.19,-12.79 -30.33,-17.66 -6.11,-4.86 -10.81,-10.3 -14.12,-16.29 -3.3,-6.03 -4.94,-12.64 -4.94,-19.83 0,-12.33 4.51,-22.83 13.57,-31.5 9.02,-8.67 20.42,-12.98 34.18,-12.98 5.02,0 9.88,0.58 14.58,1.78 3.58,0.94 7.94,2.61 13.07,5.06 5.13,2.45 8.71,3.65 10.77,3.65 1.98,0 3.54,-0.58 4.67,-1.78 1.13,-1.21 2.21,-4.13 3.19,-8.71l3.5 0zm114.78 130.53l3.54 2.72c-5.01,9.45 -11.27,16.45 -18.78,21.04 -7.5,4.63 -15.47,6.92 -23.91,6.92 -14.23,0 -25.59,-5.32 -34.1,-16.02 -8.52,-10.69 -12.8,-23.56 -12.8,-38.57 0,-14.47 3.89,-27.22 11.63,-38.19 9.37,-13.26 22.24,-19.91 38.65,-19.91 11.04,0 19.79,2.77 26.29,8.33 6.49,5.52 9.76,11.7 9.76,18.5 0,4.32 -1.32,7.78 -3.93,10.39 -2.64,2.56 -6.07,3.85 -10.3,3.85 -4.52,0 -8.21,-1.48 -11.13,-4.44 -2.95,-2.95 -4.74,-8.24 -5.44,-15.82 -0.43,-4.79 -1.56,-8.13 -3.3,-10.03 -1.75,-1.91 -3.82,-2.84 -6.15,-2.84 -3.65,0 -6.76,1.94 -9.37,5.79 -3.93,5.83 -5.91,14.78 -5.91,26.79 0,10 1.59,19.56 4.78,28.7 3.23,9.14 7.58,15.9 13.15,20.38 4.19,3.26 9.13,4.89 14.85,4.89 3.73,0 7.27,-0.85 10.62,-2.6 3.34,-1.75 7.31,-5.02 11.85,-9.88zm42.31 -130.53c4.94,0 9.1,1.71 12.52,5.17 3.42,3.46 5.13,7.62 5.13,12.48 0,4.9 -1.71,9.02 -5.17,12.44 -3.46,3.42 -7.62,5.14 -12.48,5.14 -4.9,0 -9.02,-1.72 -12.44,-5.14 -3.42,-3.42 -5.13,-7.54 -5.13,-12.44 0,-4.86 1.71,-9.02 5.13,-12.48 3.42,-3.46 7.54,-5.17 12.44,-5.17zm16.02 51.56l0 84.46c0,7.58 0.9,12.44 2.65,14.58 1.78,2.1 5.25,3.3 10.42,3.61l0 3.97 -58.1 0 0 -3.97c4.82,-0.15 8.4,-1.51 10.74,-4.16 1.55,-1.75 2.33,-6.45 2.33,-14.03l0 -62.3c0,-7.62 -0.9,-12.44 -2.68,-14.58 -1.79,-2.1 -5.25,-3.31 -10.39,-3.62l0 -3.96 45.03 0zm113.58 49.46l-58.56 0c0.7,14.11 4.47,25.27 11.32,33.48 5.25,6.3 11.55,9.45 18.94,9.45 4.58,0 8.71,-1.29 12.44,-3.81 3.73,-2.53 7.74,-7.12 11.98,-13.69l3.88 2.57c-5.75,11.7 -12.17,20.02 -19.13,24.88 -7,4.86 -15.09,7.31 -24.3,7.31 -15.79,0 -27.76,-6.06 -35.89,-18.2 -6.53,-9.76 -9.8,-21.89 -9.8,-36.39 0,-17.73 4.82,-31.85 14.43,-42.35 9.6,-10.5 20.88,-15.75 33.79,-15.75 10.77,0 20.14,4.4 28.07,13.23 7.93,8.82 12.21,21.93 12.83,39.27zm-27.99 -7.47c0,-12.21 -0.66,-20.61 -1.99,-25.16 -1.36,-4.55 -3.42,-8.01 -6.22,-10.34 -1.59,-1.36 -3.73,-2.06 -6.41,-2.06 -3.93,0 -7.16,1.94 -9.69,5.79 -4.47,6.77 -6.72,16.02 -6.72,27.81l0 3.96 31.03 0zm84.88 -41.99l0 13.76c5.45,-5.87 10.69,-10.11 15.71,-12.79 5.02,-2.68 10.38,-4.01 16.14,-4.01 6.92,0 12.64,1.91 17.19,5.76 4.55,3.85 7.58,8.63 9.09,14.31 1.21,4.35 1.83,12.68 1.83,24.96l0 41.53c0,8.21 0.74,13.3 2.22,15.32 1.48,2.03 4.55,3.27 9.21,3.81l0 3.97 -53.89 0 0 -3.97c4.04,-0.54 6.92,-2.21 8.67,-5.01 1.21,-1.91 1.83,-6.61 1.83,-14.12l0 -47.44c0,-8.75 -0.35,-14.27 -1.01,-16.52 -0.7,-2.3 -1.83,-4.05 -3.46,-5.33 -1.64,-1.25 -3.42,-1.87 -5.41,-1.87 -6.49,0 -12.52,4.59 -18.12,13.77l0 57.39c0,7.97 0.74,13.03 2.22,15.13 1.48,2.14 4.24,3.46 8.28,4l0 3.97 -53.89 0 0 -3.97c4.47,-0.46 7.62,-1.9 9.52,-4.31 1.29,-1.67 1.91,-6.61 1.91,-14.82l0 -60.42c0,-8.13 -0.74,-13.23 -2.22,-15.21 -1.48,-2.02 -4.55,-3.3 -9.21,-3.93l0 -3.96 43.39 0zm172.88 78.97l3.54 2.72c-5.01,9.45 -11.27,16.45 -18.78,21.04 -7.5,4.63 -15.47,6.92 -23.91,6.92 -14.23,0 -25.59,-5.32 -34.1,-16.02 -8.52,-10.69 -12.8,-23.56 -12.8,-38.57 0,-14.47 3.89,-27.22 11.63,-38.19 9.37,-13.26 22.24,-19.91 38.65,-19.91 11.04,0 19.79,2.77 26.29,8.33 6.49,5.52 9.76,11.7 9.76,18.5 0,4.32 -1.32,7.78 -3.93,10.39 -2.64,2.56 -6.07,3.85 -10.3,3.85 -4.52,0 -8.21,-1.48 -11.13,-4.44 -2.95,-2.95 -4.74,-8.24 -5.44,-15.82 -0.43,-4.79 -1.56,-8.13 -3.3,-10.03 -1.75,-1.91 -3.82,-2.84 -6.15,-2.84 -3.65,0 -6.76,1.94 -9.37,5.79 -3.93,5.83 -5.91,14.78 -5.91,26.79 0,10 1.59,19.56 4.78,28.7 3.23,9.14 7.58,15.9 13.15,20.38 4.19,3.26 9.13,4.89 14.85,4.89 3.73,0 7.27,-0.85 10.62,-2.6 3.34,-1.75 7.31,-5.02 11.85,-9.88zm107.09 -29.51l-58.56 0c0.7,14.11 4.47,25.27 11.32,33.48 5.25,6.3 11.55,9.45 18.94,9.45 4.58,0 8.71,-1.29 12.44,-3.81 3.73,-2.53 7.74,-7.12 11.98,-13.69l3.88 2.57c-5.75,11.7 -12.17,20.02 -19.13,24.88 -7,4.86 -15.09,7.31 -24.3,7.31 -15.79,0 -27.76,-6.06 -35.89,-18.2 -6.53,-9.76 -9.8,-21.89 -9.8,-36.39 0,-17.73 4.82,-31.85 14.43,-42.35 9.6,-10.5 20.88,-15.75 33.79,-15.75 10.77,0 20.14,4.4 28.07,13.23 7.93,8.82 12.21,21.93 12.83,39.27zm-27.99 -7.47c0,-12.21 -0.66,-20.61 -1.99,-25.16 -1.36,-4.55 -3.42,-8.01 -6.22,-10.34 -1.59,-1.36 -3.73,-2.06 -6.41,-2.06 -3.93,0 -7.16,1.94 -9.69,5.79 -4.47,6.77 -6.72,16.02 -6.72,27.81l0 3.96 31.03 0zm205.16 67.66l-29.29 -78.39 -28.65 78.39 -5.91 0 -28.43 -77.14c-4.24,-11.9 -7.85,-19.64 -10.81,-23.26 -1.9,-2.45 -4.78,-4.2 -8.67,-5.29l0 -3.96 53.89 0 0 3.96c-3.65,0 -6.18,0.55 -7.54,1.64 -1.36,1.05 -2.02,2.29 -2.02,3.69 0,1.28 1.2,5.21 3.62,11.78l15.59 41.57 15.09 -41.68 -0.98 -2.69c-2.29,-5.75 -4.27,-9.45 -5.99,-11 -1.71,-1.6 -4.35,-2.68 -7.93,-3.31l0 -3.96 54.44 0 0 3.96c-4.24,0.24 -6.92,0.82 -8.09,1.79 -1.12,0.97 -1.67,2.34 -1.67,4.09 0,1.71 1.09,5.44 3.31,11.23l15.04 41.57 13.69 -38.26c1.99,-5.56 3,-9.3 3,-11.32 0,-2.99 -0.74,-5.17 -2.18,-6.57 -1.44,-1.36 -4.24,-2.22 -8.44,-2.53l0 -3.96 31.69 0 0 3.96c-3.5,0.47 -6.26,1.71 -8.32,3.74 -2.06,2.06 -4.7,7.85 -7.97,17.38l-30.06 84.57 -6.41 0zm88.42 -161.21c4.94,0 9.1,1.71 12.52,5.17 3.42,3.46 5.13,7.62 5.13,12.48 0,4.9 -1.71,9.02 -5.17,12.44 -3.46,3.42 -7.62,5.14 -12.48,5.14 -4.9,0 -9.02,-1.72 -12.44,-5.14 -3.42,-3.42 -5.13,-7.54 -5.13,-12.44 0,-4.86 1.71,-9.02 5.13,-12.48 3.42,-3.46 7.54,-5.17 12.44,-5.17zm16.02 51.56l0 84.46c0,7.58 0.9,12.44 2.65,14.58 1.78,2.1 5.25,3.3 10.42,3.61l0 3.97 -58.1 0 0 -3.97c4.82,-0.15 8.4,-1.51 10.74,-4.16 1.55,-1.75 2.33,-6.45 2.33,-14.03l0 -62.3c0,-7.62 -0.9,-12.44 -2.68,-14.58 -1.79,-2.1 -5.25,-3.31 -10.39,-3.62l0 -3.96 45.03 0zm65.52 -39.2l0 39.2 25.2 0 0 11.2 -25.2 0 0 65.83c0,6.18 0.27,10.15 0.86,11.94 0.54,1.78 1.55,3.22 2.99,4.31 1.44,1.13 2.76,1.67 3.97,1.67 4.94,0 9.56,-3.73 13.96,-11.19l3.42 2.48c-6.14,14.51 -16.14,21.78 -29.94,21.78 -6.77,0 -12.48,-1.87 -17.15,-5.64 -4.67,-3.77 -7.66,-7.97 -8.94,-12.6 -0.74,-2.6 -1.13,-9.6 -1.13,-21l0 -57.58 -14 0 0 -4.01c9.6,-6.76 17.77,-13.88 24.54,-21.35 6.72,-7.46 12.63,-15.82 17.65,-25.04l3.77 0zm79.09 -8.86l0 61.9c5.83,-6.14 11.16,-10.5 16.02,-13.06 4.82,-2.53 9.88,-3.82 15.09,-3.82 6.69,0 12.36,1.91 17.11,5.68 4.7,3.81 7.85,8.28 9.41,13.42 1.55,5.09 2.33,13.76 2.33,25.89l0 41.57c0,8.17 0.74,13.26 2.26,15.28 1.51,2.03 4.59,3.31 9.17,3.85l0 3.97 -53.89 0 0 -3.97c3.77,-0.54 6.57,-2.06 8.48,-4.58 1.36,-1.99 2.02,-6.85 2.02,-14.55l0 -47.48c0,-8.78 -0.35,-14.31 -1.01,-16.56 -0.7,-2.26 -1.83,-3.97 -3.46,-5.25 -1.6,-1.25 -3.42,-1.87 -5.45,-1.87 -3.03,0 -5.95,1.05 -8.82,3.11 -2.84,2.1 -5.95,5.76 -9.26,11.01l0 57.04c0,7.62 0.58,12.41 1.71,14.31 1.4,2.61 4.36,4.2 8.79,4.82l0 3.97 -53.89 0 0 -3.97c4.47,-0.46 7.62,-1.9 9.52,-4.35 1.29,-1.67 1.91,-6.61 1.91,-14.78l0 -108.49c0,-8.12 -0.74,-13.22 -2.22,-15.2 -1.48,-2.02 -4.55,-3.31 -9.21,-3.93l0 -3.96 43.39 0zm221.69 150.71l0 3.97 -80.49 0 0 -3.97 5.09 0c4.47,0 8.09,-0.81 10.81,-2.41 1.98,-1.09 3.5,-2.91 4.55,-5.52 0.82,-1.83 1.24,-6.65 1.24,-14.46l0 -101.96c0,-7.97 -0.42,-12.95 -1.24,-14.93 -0.86,-1.99 -2.53,-3.74 -5.06,-5.21 -2.52,-1.52 -5.94,-2.26 -10.3,-2.26l-5.09 0 0 -3.96 80.49 0 0 3.96 -5.1 0c-4.43,0 -8.01,0.82 -10.73,2.41 -1.94,1.09 -3.5,2.92 -4.63,5.52 -0.81,1.83 -1.24,6.65 -1.24,14.47l0 101.96c0,7.97 0.43,12.94 1.28,14.93 0.9,1.98 2.57,3.73 5.1,5.21 2.52,1.51 5.95,2.25 10.22,2.25l5.1 0zm57.2 -102.65l0 13.76c5.45,-5.87 10.69,-10.11 15.71,-12.79 5.02,-2.68 10.38,-4.01 16.14,-4.01 6.92,0 12.64,1.91 17.19,5.76 4.55,3.85 7.58,8.63 9.09,14.31 1.21,4.35 1.83,12.68 1.83,24.96l0 41.53c0,8.21 0.74,13.3 2.22,15.32 1.48,2.03 4.55,3.27 9.21,3.81l0 3.97 -53.89 0 0 -3.97c4.04,-0.54 6.92,-2.21 8.67,-5.01 1.21,-1.91 1.83,-6.61 1.83,-14.12l0 -47.44c0,-8.75 -0.35,-14.27 -1.01,-16.52 -0.7,-2.3 -1.83,-4.05 -3.46,-5.33 -1.64,-1.25 -3.42,-1.87 -5.41,-1.87 -6.49,0 -12.52,4.59 -18.12,13.77l0 57.39c0,7.97 0.74,13.03 2.22,15.13 1.48,2.14 4.24,3.46 8.28,4l0 3.97 -53.89 0 0 -3.97c4.47,-0.46 7.62,-1.9 9.52,-4.31 1.29,-1.67 1.91,-6.61 1.91,-14.82l0 -60.42c0,-8.13 -0.74,-13.23 -2.22,-15.21 -1.48,-2.02 -4.55,-3.3 -9.21,-3.93l0 -3.96 43.39 0zm129.76 0l0 13.76c5.45,-5.87 10.69,-10.11 15.71,-12.79 5.02,-2.68 10.38,-4.01 16.14,-4.01 6.92,0 12.64,1.91 17.19,5.76 4.55,3.85 7.58,8.63 9.09,14.31 1.21,4.35 1.83,12.68 1.83,24.96l0 41.53c0,8.21 0.74,13.3 2.22,15.32 1.48,2.03 4.55,3.27 9.21,3.81l0 3.97 -53.89 0 0 -3.97c4.04,-0.54 6.92,-2.21 8.67,-5.01 1.21,-1.91 1.83,-6.61 1.83,-14.12l0 -47.44c0,-8.75 -0.35,-14.27 -1.01,-16.52 -0.7,-2.3 -1.83,-4.05 -3.46,-5.33 -1.64,-1.25 -3.42,-1.87 -5.41,-1.87 -6.49,0 -12.52,4.59 -18.12,13.77l0 57.39c0,7.97 0.74,13.03 2.22,15.13 1.48,2.14 4.24,3.46 8.28,4l0 3.97 -53.89 0 0 -3.97c4.47,-0.46 7.62,-1.9 9.52,-4.31 1.29,-1.67 1.91,-6.61 1.91,-14.82l0 -60.42c0,-8.13 -0.74,-13.23 -2.22,-15.21 -1.48,-2.02 -4.55,-3.3 -9.21,-3.93l0 -3.96 43.39 0zm136.37 -3.04c9.22,0 17.81,2.38 25.78,7.16 7.94,4.78 14,11.59 18.12,20.37 4.12,8.79 6.19,18.4 6.19,28.86 0,15.08 -3.81,27.72 -11.48,37.87 -9.25,12.29 -22,18.43 -38.26,18.43 -15.98,0 -28.31,-5.6 -36.94,-16.83 -8.63,-11.2 -12.95,-24.23 -12.95,-39.01 0,-15.24 4.4,-28.5 13.22,-39.85 8.83,-11.32 20.92,-17 36.32,-17zm0.51 7.94c-3.85,0 -7.16,1.47 -9.92,4.39 -2.76,2.92 -4.59,8.67 -5.44,17.27 -0.9,8.63 -1.32,20.57 -1.32,35.89 0,8.12 0.54,15.71 1.59,22.78 0.82,5.37 2.61,9.49 5.33,12.29 2.72,2.8 5.83,4.2 9.29,4.2 3.42,0 6.26,-0.93 8.52,-2.84 2.95,-2.56 4.9,-6.18 5.91,-10.81 1.51,-7.19 2.25,-21.77 2.25,-43.7 0,-12.88 -0.7,-21.74 -2.14,-26.56 -1.43,-4.83 -3.57,-8.32 -6.37,-10.54 -1.95,-1.6 -4.51,-2.37 -7.7,-2.37zm114.21 104.75l-36.09 -82.59c-4.31,-10.03 -7.7,-16.41 -10.15,-19.09 -1.75,-1.98 -4.31,-3.31 -7.73,-4.01l0 -3.96 56.61 0 0 3.96c-3.54,0 -5.99,0.66 -7.27,1.95 -1.83,1.71 -2.72,3.69 -2.72,5.99 0,2.83 1.67,8.16 4.98,15.98l17.61 39.97 13.96 -34.49c4.01,-9.95 6.03,-16.99 6.03,-21.11 0,-2.38 -0.86,-4.32 -2.57,-5.84 -1.71,-1.47 -4.7,-2.29 -9.06,-2.45l0 -3.96 34.76 0 0 3.96c-3.34,0.47 -6.06,1.71 -8.2,3.81 -2.1,2.07 -5.29,8.17 -9.57,18.28l-35.34 83.6 -5.25 0zm127.16 -18.9c-12.99,11.51 -24.7,17.27 -35,17.27 -6.1,0 -11.16,-1.98 -15.2,-5.99 -4.01,-3.96 -6.03,-8.98 -6.03,-14.97 0,-8.13 3.5,-15.44 10.5,-21.93 7,-6.49 22.24,-15.13 45.73,-25.9l0 -10.69c0,-8.01 -0.43,-13.07 -1.33,-15.17 -0.85,-2.06 -2.52,-3.88 -4.97,-5.44 -2.45,-1.56 -5.21,-2.33 -8.25,-2.33 -4.97,0 -9.06,1.09 -12.25,3.3 -1.98,1.36 -2.95,2.96 -2.95,4.78 0,1.6 1.05,3.54 3.19,5.92 2.88,3.26 4.31,6.41 4.31,9.44 0,3.7 -1.36,6.89 -4.16,9.49 -2.76,2.61 -6.37,3.93 -10.85,3.93 -4.78,0 -8.78,-1.44 -12.01,-4.32 -3.23,-2.87 -4.86,-6.26 -4.86,-10.11 0,-5.48 2.18,-10.69 6.49,-15.67 4.36,-4.94 10.38,-8.75 18.12,-11.43 7.78,-2.64 15.83,-3.97 24.19,-3.97 10.11,0 18.12,2.14 23.99,6.42 5.91,4.28 9.72,8.9 11.47,13.92 1.05,3.19 1.6,10.5 1.6,21.93l0 41.26c0,4.82 0.19,7.89 0.58,9.14 0.39,1.24 0.93,2.17 1.71,2.8 0.78,0.58 1.63,0.89 2.61,0.89 2.02,0 4.04,-1.36 6.14,-4.08l3.42 2.64c-3.81,5.64 -7.74,9.76 -11.82,12.29 -4.04,2.57 -8.67,3.85 -13.84,3.85 -6.07,0 -10.85,-1.44 -14.27,-4.28 -3.42,-2.87 -5.49,-7.19 -6.26,-12.99zm0 -8.39l0 -35.47c-9.18,5.41 -16.02,11.16 -20.53,17.31 -2.96,4.08 -4.44,8.24 -4.44,12.4 0,3.5 1.25,6.57 3.77,9.22 1.91,2.06 4.55,3.07 7.98,3.07 3.81,0 8.2,-2.18 13.22,-6.53zm100.09 -121.56l0 39.2 25.2 0 0 11.2 -25.2 0 0 65.83c0,6.18 0.27,10.15 0.86,11.94 0.54,1.78 1.55,3.22 2.99,4.31 1.44,1.13 2.76,1.67 3.97,1.67 4.94,0 9.56,-3.73 13.96,-11.19l3.42 2.48c-6.14,14.51 -16.14,21.78 -29.94,21.78 -6.77,0 -12.48,-1.87 -17.15,-5.64 -4.67,-3.77 -7.66,-7.97 -8.94,-12.6 -0.74,-2.6 -1.13,-9.6 -1.13,-21l0 -57.58 -14 0 0 -4.01c9.6,-6.76 17.77,-13.88 24.54,-21.35 6.72,-7.46 12.63,-15.82 17.65,-25.04l3.77 0z"></path> <path class="fil2" d="M4027.75 3119.41c4.94,0 9.1,1.71 12.52,5.17 3.42,3.46 5.13,7.62 5.13,12.48 0,4.9 -1.71,9.02 -5.17,12.44 -3.46,3.42 -7.62,5.14 -12.48,5.14 -4.9,0 -9.02,-1.72 -12.44,-5.14 -3.42,-3.42 -5.13,-7.54 -5.13,-12.44 0,-4.86 1.71,-9.02 5.13,-12.48 3.42,-3.46 7.54,-5.17 12.44,-5.17zm16.02 51.56l0 84.46c0,7.58 0.9,12.44 2.65,14.58 1.78,2.1 5.25,3.3 10.42,3.61l0 3.97 -58.1 0 0 -3.97c4.82,-0.15 8.4,-1.51 10.74,-4.16 1.55,-1.75 2.33,-6.45 2.33,-14.03l0 -62.3c0,-7.62 -0.9,-12.44 -2.68,-14.58 -1.79,-2.1 -5.25,-3.31 -10.39,-3.62l0 -3.96 45.03 0zm73.53 -3.04c9.22,0 17.81,2.38 25.78,7.16 7.94,4.78 14,11.59 18.12,20.37 4.12,8.79 6.19,18.4 6.19,28.86 0,15.08 -3.81,27.72 -11.48,37.87 -9.25,12.29 -22,18.43 -38.26,18.43 -15.98,0 -28.31,-5.6 -36.94,-16.83 -8.63,-11.2 -12.95,-24.23 -12.95,-39.01 0,-15.24 4.4,-28.5 13.22,-39.85 8.83,-11.32 20.92,-17 36.32,-17zm0.51 7.94c-3.85,0 -7.16,1.47 -9.92,4.39 -2.76,2.92 -4.59,8.67 -5.44,17.27 -0.9,8.63 -1.32,20.57 -1.32,35.89 0,8.12 0.54,15.71 1.59,22.78 0.82,5.37 2.61,9.49 5.33,12.29 2.72,2.8 5.83,4.2 9.29,4.2 3.42,0 6.26,-0.93 8.52,-2.84 2.95,-2.56 4.9,-6.18 5.91,-10.81 1.51,-7.19 2.25,-21.77 2.25,-43.7 0,-12.88 -0.7,-21.74 -2.14,-26.56 -1.43,-4.83 -3.57,-8.32 -6.37,-10.54 -1.95,-1.6 -4.51,-2.37 -7.7,-2.37zm109.54 -4.9l0 13.76c5.45,-5.87 10.69,-10.11 15.71,-12.79 5.02,-2.68 10.38,-4.01 16.14,-4.01 6.92,0 12.64,1.91 17.19,5.76 4.55,3.85 7.58,8.63 9.09,14.31 1.21,4.35 1.83,12.68 1.83,24.96l0 41.53c0,8.21 0.74,13.3 2.22,15.32 1.48,2.03 4.55,3.27 9.21,3.81l0 3.97 -53.89 0 0 -3.97c4.04,-0.54 6.92,-2.21 8.67,-5.01 1.21,-1.91 1.83,-6.61 1.83,-14.12l0 -47.44c0,-8.75 -0.35,-14.27 -1.01,-16.52 -0.7,-2.3 -1.83,-4.05 -3.46,-5.33 -1.64,-1.25 -3.42,-1.87 -5.41,-1.87 -6.49,0 -12.52,4.59 -18.12,13.77l0 57.39c0,7.97 0.74,13.03 2.22,15.13 1.48,2.14 4.24,3.46 8.28,4l0 3.97 -53.89 0 0 -3.97c4.47,-0.46 7.62,-1.9 9.52,-4.31 1.29,-1.67 1.91,-6.61 1.91,-14.82l0 -60.42c0,-8.13 -0.74,-13.23 -2.22,-15.21 -1.48,-2.02 -4.55,-3.3 -9.21,-3.93l0 -3.96 43.39 0zm153.33 -2.8l1.63 36.39 -3.97 0c-4.59,-10.77 -9.33,-18.12 -14.27,-22.08 -4.9,-3.93 -9.8,-5.91 -14.7,-5.91 -3.07,0 -5.71,1.05 -7.89,3.11 -2.18,2.1 -3.27,4.51 -3.27,7.23 0,2.02 0.74,4.01 2.26,5.91 2.41,3.11 9.18,8.4 20.26,15.94 11.12,7.55 18.39,13.96 21.93,19.21 3.5,5.25 5.25,11.16 5.25,17.66 0,5.91 -1.48,11.7 -4.43,17.38 -2.92,5.68 -7.08,10.03 -12.45,13.06 -5.36,3.04 -11.27,4.55 -17.77,4.55 -5.05,0 -11.82,-1.59 -20.26,-4.82 -2.29,-0.82 -3.81,-1.24 -4.66,-1.24 -2.49,0 -4.55,1.94 -6.22,5.83l-3.97 0 -1.87 -38.26 3.97 0c3.38,9.95 8.05,17.42 14,22.39 5.91,4.98 11.51,7.47 16.8,7.47 3.65,0 6.61,-1.13 8.9,-3.34 2.29,-2.26 3.46,-4.94 3.46,-8.13 0,-3.66 -1.13,-6.77 -3.38,-9.45 -2.3,-2.64 -7.35,-6.65 -15.21,-12.02 -11.58,-8.04 -19.05,-14.15 -22.47,-18.39 -4.98,-6.22 -7.47,-13.06 -7.47,-20.57 0,-8.2 2.8,-15.59 8.44,-22.2 5.64,-6.65 13.8,-9.96 24.46,-9.96 5.75,0 11.31,1.44 16.68,4.32 2.02,1.17 3.69,1.75 4.98,1.75 1.36,0 2.49,-0.31 3.3,-0.89 0.82,-0.59 2.14,-2.22 3.97,-4.94l3.97 0z"></path> </g> <path class="fil3" d="M2639.15 495.22l-1257.33 0c-681.17,0 -1238.48,557.31 -1238.48,1238.48l0 8.32c0,676.6 553.56,1230.17 1230.16,1230.17l1265.65 0 0 -479.21 -1241.93 0c-413.31,0 -751.47,-338.16 -751.47,-751.46l0 -5.08c0,-416.11 340.44,-756.55 756.55,-756.55l1236.85 0 0 -484.67z"></path> <path class="fil4" d="M2760.83 495.22l1257.33 0c681.18,0 1238.49,557.31 1238.49,1238.48l0 8.32c0,676.6 -553.58,1230.17 -1230.17,1230.17l-1265.65 0 0 -479.21 1241.94 0c413.3,0 751.45,-338.16 751.45,-751.46l0 -5.08c0,-416.11 -340.44,-756.55 -756.54,-756.55l-1236.85 0 0 -484.67z"></path> <path class="fil4" d="M2760.83 72.48l437.89 0 0 483.18 -437.89 0 0 -483.18z"></path> <path class="fil4" d="M1579.81 1320.23l103.6 0 0 431.68 -103.6 0 0 -431.68z"></path> <path class="fil4" d="M1859.03 1320.23l103.6 0 0 431.68 -103.6 0 0 -431.68z"></path> <path class="fil4" d="M1583.73 1587.87l0 -103.61 372.68 0 0 103.61 -372.68 0z"></path> <path class="fil4" d="M1462.48 1461.78l61.19 -69.56c0,0 -83.05,-86.71 -201.89,-69.41 -118.84,17.32 -193.52,106.24 -192.14,214.41 1.38,108.16 84.5,204.52 191.37,213.72 106.85,9.2 200.01,-68.13 200.01,-68.13l-47.45 -69.86c0,0 -72.58,55.59 -132.21,43.62 -59.63,-11.95 -100.46,-55.19 -100.92,-111.61 -0.46,-56.41 15.15,-121.15 99.75,-132.38 84.61,-11.25 122.29,49.2 122.29,49.2z"></path> <path class="fil4" d="M2038.65 1320.23l103.59 0 0 431.68 -103.59 0 0 -431.68z"></path> <path class="fil4" d="M2038.65 1320.23l222.41 0c0,0 126.4,13.38 133.82,150.02 0,0 1.23,97.07 -72.35,130.45l92.42 148.99 -122.43 0 -63.69 -123.67 -98.32 0 0 -87.8 109.44 0c0,0 53.68,-10.73 55.3,-65.05 1.61,-54.3 -45.71,-60.76 -45.71,-60.76l-120.46 0 -90.43 -92.18z"></path> <path class="fil4" d="M2661.36 1328.18c122.87,0 222.47,89.02 222.47,206.92 0,117.89 -99.6,204.47 -222.47,204.47 -122.85,0 -222.45,-86.58 -222.45,-204.47 0,-117.9 99.6,-206.92 222.45,-206.92zm0.82 80.96c62.78,0 113.68,54.87 113.68,127.53 0,72.66 -50.9,126.01 -113.68,126.01 -62.78,0 -113.68,-53.35 -113.68,-126.01 0,-72.66 50.9,-127.53 113.68,-127.53z"></path> <path class="fil4" d="M2941.7 1320.85l103.6 0 0 431.67 -103.6 0 0 -431.67z"></path> <path class="fil4" d="M3298.73 1320.23l103.6 0 0 431.68 -103.6 0 0 -431.68z"></path> <path class="fil4" d="M3045.29 1323.9l121.73 252.95 129.27 -254.18 24.11 46.37 -16.7 100.81 -100.67 227.83 -68.99 0 -107.4 -233.29 9.25 -135.85 9.4 0 0 -4.64z"></path> <path class="fil4" d="M3476.01 1320.85l103.6 0 0 431.67 -103.6 0 0 -431.67z"></path> <path class="fil4" d="M3529.96 1410.96l0 -90.11 272.47 0 0 90.11 -272.47 0z"></path> <path class="fil4" d="M3529.96 1752.52l0 -90.11 272.47 0 0 90.11 -272.47 0z"></path> <path class="fil4" d="M3529.96 1577.03l0 -90.11 247.23 0 0 90.11 -247.23 0z"></path> <path class="fil4" d="M3875.22 1320.85l103.61 0 0 431.67 -103.61 0 0 -431.67z"></path> <path class="fil4" d="M3913.77 1322.96l165.85 0c89.86,0 190.74,98.03 190.74,216.06l0 1.45c0,117.24 -100.4,211.73 -189.64,211.73l-166.95 0 0 -83.04 163.82 0c54.52,0 99.13,-58.6 99.13,-130.22l0 -0.88c0,-72.1 -44.92,-131.1 -99.8,-131.1l-163.15 0 0 -84z"></path> <path class="fil5" d="M1220.61 2214.42l0 -371.82 127.1 0c25.87,0 46.6,3.72 62.29,11.25 15.61,7.53 27.83,19.13 36.66,34.8 8.91,15.57 13.32,31.93 13.32,49.07 0,15.84 -3.93,30.81 -11.74,44.83 -7.81,14.02 -19.63,25.36 -35.48,34.02 20.49,6.57 36.26,17.83 47.22,33.75 11.05,15.84 16.57,34.62 16.57,56.26 0,17.48 -3.39,33.67 -10.1,48.64 -6.69,14.97 -14.98,26.48 -24.83,34.62 -9.86,8.05 -22.24,14.19 -37.06,18.35 -14.91,4.15 -33.12,6.23 -54.73,6.23l-129.22 0zm44.94 -215.51l73.25 0c19.87,0 34.14,-1.47 42.74,-4.33 11.43,-3.72 20.02,-9.95 25.78,-18.61 5.76,-8.65 8.67,-19.47 8.67,-32.54 0,-12.37 -2.68,-23.28 -8.12,-32.63 -5.36,-9.43 -13.09,-15.92 -23.1,-19.38 -10.02,-3.47 -27.2,-5.2 -51.49,-5.2l-67.73 0 0 112.69zm0 171.89l84.37 0c14.51,0 24.68,-0.61 30.59,-1.82 10.25,-1.99 18.92,-5.36 25.86,-10.13 6.94,-4.76 12.62,-11.68 17.11,-20.77 4.5,-9.08 6.7,-19.56 6.7,-31.41 0,-13.94 -3.23,-25.97 -9.77,-36.27 -6.47,-10.3 -15.46,-17.48 -26.97,-21.64 -11.43,-4.15 -27.99,-6.23 -49.52,-6.23l-78.37 0 0 128.27z"></path> <path class="fil5" d="M1507.8 2212.27l0 -369.64 37.24 0 0 369.64 -37.24 0z"></path> <path class="fil6" d="M1781.95 1843.66c103.08,3.61 185.48,84.98 185.48,184.85 0,99.87 -82.4,181.24 -185.48,184.86l0 -30.08c81.49,-3.77 146.4,-71.62 146.4,-154.78 0,-83.15 -64.91,-151.01 -146.4,-154.78l0 -30.07zm-18.83 369.5c-100.95,-5.81 -180.96,-86.25 -180.96,-184.65 0,-98.4 80.01,-178.85 180.96,-184.64l0 30.13c-79.35,6.03 -141.86,72.9 -141.86,154.51 0,81.61 62.51,148.48 141.86,154.5l0 30.15z"></path> <path class="fil6" d="M2187.32 1903.84l31.23 -29.89c0,0 -32.3,-30.41 -90.99,-32.48 -58.7,-2.05 -112.54,29.89 -114.69,93.29 -2.15,63.39 58.15,88.64 71.62,93.29 13.45,4.63 102.2,27.47 107.89,71.78 5.7,44.31 -33.37,73.13 -59.82,75.66 -26.45,2.53 -84.02,-8.18 -112.5,-47.03l-27.06 27.95c0,0 56.62,52.17 121.55,55.89 64.94,3.73 114.56,-52.15 118.9,-85.94 3.7,-28.83 0.62,-85.94 -56.35,-109.06 -56.97,-23.12 -120.76,-41.5 -121.99,-79.42 -1.24,-37.94 28.49,-55.13 43.34,-58.09 14.86,-2.97 61.93,-3.56 88.87,24.05z"></path> <path class="fil6" d="M2555.91 1924.28l28.25 -28.25c0,0 -59.33,-58.4 -143.16,-55.57 -83.82,2.83 -190.25,80.06 -182.71,213.79 7.53,133.75 145.05,175.19 180.83,175.19 35.79,0 120.55,-19.78 138.45,-53.69l-21.66 -31.08c0,0 -60.28,58.4 -127.15,43.33 -66.87,-15.07 -129.96,-81 -128.09,-153.52 1.88,-72.52 49.91,-150.7 145.04,-156.34 0,0 63.11,-7.54 110.2,46.14z"></path> <path class="fil5" d="M2622.94 2212.27l0 -369.64 37.23 0 0 369.64 -37.23 0z"></path> <path class="fil5" d="M2937.36 1879.81l-229.13 0 0 -37.23 229.13 0 0 37.23z"></path> <path class="fil5" d="M2937.36 2049.33l-229.13 0 0 -37.22 229.13 0 0 37.22z"></path> <path class="fil5" d="M2937.36 2212.27l-229.13 0 0 -37.23 229.13 0 0 37.23z"></path> <path class="fil6" d="M3630.96 1924.28l28.26 -28.25c0,0 -59.33,-58.4 -143.16,-55.57 -83.83,2.83 -190.26,80.06 -182.72,213.79 7.54,133.75 145.04,175.19 180.83,175.19 35.8,0 120.56,-19.78 138.45,-53.69l-21.66 -31.08c0,0 -60.28,58.4 -127.15,43.33 -66.87,-15.07 -129.97,-81 -128.09,-153.52 1.89,-72.52 49.92,-150.7 145.05,-156.34 0,0 63.1,-7.54 110.19,46.14z"></path> <path class="fil5" d="M3925.59 1874.05l-229.13 0 0 -37.23 229.13 0 0 37.23z"></path> <path class="fil5" d="M3925.59 2043.58l-229.13 0 0 -37.23 229.13 0 0 37.23z"></path> <path class="fil5" d="M3925.59 2206.51l-229.13 0 0 -37.22 229.13 0 0 37.22z"></path> <path class="fil6" d="M4145.81 1903.84l31.22 -29.89c0,0 -32.3,-30.41 -90.99,-32.48 -58.69,-2.05 -112.54,29.89 -114.68,93.29 -2.16,63.39 58.14,88.64 71.61,93.29 13.46,4.63 102.2,27.47 107.89,71.78 5.7,44.31 -33.36,73.13 -59.81,75.66 -26.45,2.53 -84.03,-8.18 -112.51,-47.03l-27.06 27.95c0,0 56.63,52.17 121.56,55.89 64.94,3.73 114.55,-52.15 118.89,-85.94 3.7,-28.83 0.62,-85.94 -56.35,-109.06 -56.96,-23.12 -120.75,-41.5 -121.99,-79.42 -1.24,-37.94 28.49,-55.13 43.34,-58.09 14.87,-2.97 61.94,-3.56 88.88,24.05z"></path> <path class="fil6" d="M2977.28 2212.59l44.88 0 0 -269.93 271.34 288.45 0 -388.43 -41.99 0 0 282.05 -273.08 -292.68 -1.15 380.54z"></path> </g> </g> </svg>